<svg id="Layer_1" data-name="Layer 1" xmlns="http://www.w3.org/2000/svg" viewBox="0 0 86.6397 54.8569"><title>live-sass-compiler-icon</title><path d="M50.0707,76.5287C33.7736,75.67,21.9925,67.9362,11.7655,57.4271c-8.02-8.2408-8.0487-8.55-.1532-16.6615C21.1787,30.9369,32.0031,23.1788,46.3037,21.86a35.9832,35.9832,0,0,1,24.4845,6.5561c7.121,5.0385,13.3287,11.38,19.8488,17.2482,1.932,1.7388,2.4249,3.8025.518,6.1159C80.3475,64.892,67.5767,74.6968,49.9988,76.5294,49.6685,76.5638,49.3343,76.5611,50.0707,76.5287Zm-1.12-7.1257c11.8836.0082,20.4369-8.5049,20.4523-20.356.0154-11.8621-8.5258-20.4422-20.3573-20.45-11.87-.0078-20.44,8.5238-20.4484,20.3557C28.589,60.8306,37.1128,69.3949,48.9505,69.403Z" transform="translate(-5.7206 -21.6972)"/><path d="M48.98,58.502c-4.7607-.0172-9.6955-5.1014-9.4813-9.7686.2128-4.6359,4.9719-9.252,9.52-9.2341,4.7546.0188,9.6942,5.1082,9.4827,9.77C58.291,53.9084,53.5367,58.5183,48.98,58.502Z" transform="translate(-5.7206 -21.6972)"/></svg>