<svg xmlns="http://www.w3.org/2000/svg" viewBox="0 0 270 240"><defs><style>.cls-1{isolation:isolate;}.cls-2{fill:#fff;}.cls-3{fill:#282525;}.cls-4{fill:#e63d34;}.cls-5{fill:#3cb34b;}.cls-6{fill:#bf2b31;}.cls-7{fill:#3c3b3a;opacity:0.1;mix-blend-mode:multiply;}</style></defs><title>Artboard 29 copy 13</title><g class="cls-1"><g id="Layer_1" data-name="Layer 1"><path class="cls-2" d="M186.17,105c2.66-3.47,3.16-9.13,3.35-15.48a3.05,3.05,0,0,0-2.64-3.12L169.54,84a39.94,39.94,0,0,0,1.74-13.19l.14-.19a12.23,12.23,0,0,0-.92-14.08,3.05,3.05,0,0,0-.14-3.55,22.44,22.44,0,0,0-10.22-6.72,3.05,3.05,0,0,0-1.82-2.78,20.53,20.53,0,0,0-7.79-1.43,22.49,22.49,0,0,0-3.3.24l-2.82-3.29a3.05,3.05,0,0,0,1.43-4.92c-.63-.73-2.22-1.91-5.92-2.12-1.73-6.61-7.19-13.16-7.89-14a3.05,3.05,0,0,0-3.68-.76c-5.86,2.9-9.46,6.35-11.65,9.65a3,3,0,0,0-4.1-.38L108,30.1l-1.88-3.78a3.05,3.05,0,0,0-2-1.61,3,3,0,0,0-2.55.55L85.07,37.83a3.05,3.05,0,0,0,0,4.82l3.21,2.55-3.43,2.62a3.05,3.05,0,0,0-.57,4.28l.36.46a31,31,0,0,0-14.44,8.95,3.05,3.05,0,0,0-.53,3.15c.29.72,3.19,7,18.16,16-1.34,3.81-3.35,11.15-1.7,17.22a3.05,3.05,0,0,0,2.75,2.25c1,4.62,3.26,9.2,7.79,11.89a3,3,0,0,0,2.25.34,38.44,38.44,0,0,0,3.6,3.69,17.23,17.23,0,0,0,.32,9c.15.44.31.87.5,1.29,2.17,4.95,6.61,7.85,11.16,9.6a3,3,0,0,0-.2,1.06v6.31a3,3,0,0,0,.78,2L103.3,164.75a3.05,3.05,0,0,0,1.07,4.21l4.65,2.73a3,3,0,0,0,.59.25l-7.2,26.77a3.05,3.05,0,0,0,2.19,3.75l11.09,2.84a3.05,3.05,0,0,0,3.8-2.74c.35-4.87.75-10.27,1.16-15.79l.35,29.08a9.17,9.17,0,0,1-6.51,2.4H114a3.05,3.05,0,0,0-3,2.56l-.23,1.43a3.05,3.05,0,0,0,2.68,3.53,25.46,25.46,0,0,0,2.57.12,21.78,21.78,0,0,0,7-1l.07.07a3.05,3.05,0,0,0,2.17.91h.23l3-.23a3.05,3.05,0,0,0,2.8-3.43l-.58-4.58h1.8v0c0,.06,0,.11,0,.16l-.55,4.38a3.05,3.05,0,0,0,2.8,3.43l3,.23h.23a3.05,3.05,0,0,0,2.17-.91l.07-.07a21.81,21.81,0,0,0,7,1,25,25,0,0,0,2.57-.12,3.05,3.05,0,0,0,2.68-3.53l-.24-1.43a3.05,3.05,0,0,0-3-2.56h-.48a9,9,0,0,1-6.76-2.64L141,146.27a3,3,0,0,0,2.57-3v-6.31a3.06,3.06,0,0,0-.07-.65l0-11.2A17.68,17.68,0,0,0,152,130.3c.45.11.9.2,1.36.27a15,15,0,0,0,2.15.16h0A19.23,19.23,0,0,0,166.26,127l-3.39,18.54A3.05,3.05,0,0,0,165,149l2.1.62a3.05,3.05,0,0,0,3.87-2.41l2.56-14.78a8.9,8.9,0,0,0,3.44.69,13.51,13.51,0,0,0,6.32-1.78,3.06,3.06,0,0,0,1.43-3.18c-.74-3.95-2.82-6.67-5.88-7.86a3.86,3.86,0,0,0,.76-.65c2.62,1.15,5.42,1.46,7.44-.84a3.05,3.05,0,0,0,.6-3,6.84,6.84,0,0,0-1.48-2.48,5.5,5.5,0,0,0,3.08-3,3.92,3.92,0,0,0-.63-3.87A4.33,4.33,0,0,0,186.17,105Zm-30.09,17.5c-6.41-1.81-10.27-6.28-10.13-11,0,0,8.94-3.8,12.45-11.44l3.33-3s-.77,6.85,2.12,7.2c0,0-2.28,4.76,1.06,7.2l3.08,3.33S162.49,124.29,156.08,122.48Z"/><path class="cls-3" d="M152.77,127.33c-5.87-1.43-10.94-7.5-15.07-18l2.09-.82c4.07,10.38,8.91,16.06,14.38,16.85s11.38-3.07,17.94-11.45c.81-1,1.35-1.72,2.25-1.16l-1.19,1.9a1.09,1.09,0,0,0,1.31-.1c-.08.08-.34.42-.6.75-2.64,3.38-10.68,13.66-20,12.29Q153.3,127.46,152.77,127.33Z"/><path class="cls-3" d="M105.7,124c-1.9-5.74.56-13.25,7.31-22.34l1.8,1.34c-6.65,9-8.89,16.07-6.67,21.13s8.64,8,19.22,9.14c1.31.14,2.18.23,2.18,1.29H127.3a1.09,1.09,0,0,0,.78,1.05c-.11,0-.54-.07-1-.11-4.26-.45-17.24-1.82-21-10.47Q105.87,124.57,105.7,124Z"/><polygon class="cls-3" points="118.69 143.26 117.31 101.7 140.53 104.74 140.45 142.09 118.69 143.26"/><polygon class="cls-2" points="134.27 104.14 110.64 104.83 94.96 82.62 90.09 75.49 75.5 64.7 78.24 59.12 92.76 55.53 110.44 55.36 121.9 32.61 128.43 22.56 136.48 41.28 152.67 52.48 157.39 69.48 150.85 92.55 134.27 104.14"/><path class="cls-4" d="M168,54.91a20.34,20.34,0,0,0-15.09-6.76s3-1.9,4.23-1.82a18.78,18.78,0,0,0-11-.64l-7.13-8.34,4.61-1.21s-1.17-1.35-6.17-1.06c-.5-6.67-7.65-15.05-7.65-15.05-13,6.44-13.44,15.56-13.26,18.24a66.44,66.44,0,0,0-10.21,8.41s1.16-4.05,3.81-6.28A20.43,20.43,0,0,0,98.86,53.56s-17.14-.68-26.39,10c0,0,2.58,6.4,19.12,15.79C91.58,79.3,87,89.56,89,97c0,0,.77-8.39,2.58-11.28,0,0-3.26,17.75,6.57,23.59,0,0-3.33-5.42-2.68-8a32,32,0,0,0,6.32,9.14h-.36a5.83,5.83,0,0,1,1.13.48l.09.05a15.62,15.62,0,0,1,2.59-.53c-1.3-1.43-2.5-3.09-2.65-4.42a55.1,55.1,0,0,0,4.82,4.35c.37,0,.73,0,1.1.05,2.27.24,4.47.58,6.68,1l3-.86c5.09-.67,8.57-.81,13.78-2.39,4.77-1.45,9.51-2.75,14.35-3.93,2.33-.57,3.6-1.87,5.85-3.25,3.06-1.88,4.32-4.2.39.74a21.5,21.5,0,0,1,3.51-3.5H156l.71-.75a12,12,0,0,0,1.6-2.23,22.67,22.67,0,0,0,2.86-11s1.6,5,1.29,6.13c0,0,3.66-7.24,2.08-13.08a52.21,52.21,0,0,1,2,6.12s3.25-9.27.87-17.86a15.26,15.26,0,0,1,1.52,3.35s5.07-7.34-5-14.3A5.12,5.12,0,0,1,168,54.91ZM91.24,72.26c-6.09-1.09-12.71-8-12.71-8,4.63-5.45,16-4.5,16-4.5C91.75,65.11,91.24,72.26,91.24,72.26Zm44.51,5.33c-5,3.76-12.7,1.93-17.24-4.09s-7.08-17.77-2.1-21.53,15.59,1.9,20.13,7.92S140.73,73.82,135.75,77.58Zm15.9-16a22,22,0,0,1,.26,7.36s-11.66,2.45-8.29-1.71S150.8,58.58,151.66,61.63ZM133.82,38.32s-9.25-1.42-12.28-1c-1.31.2,0-7.53,6.81-12C128.35,25.37,135.12,33.16,133.82,38.32Z"/><path class="cls-4" d="M95.32,101.71s7.12,14,17.06,16.51c0,0-5.21-4.66-6.72-7.28,0,0,8.51,9.52,26.2,4a21.78,21.78,0,0,1-10.55-2.14s26.37.21,36.78-17.11l-33.67,7.4s-20-6-20.35-5.92S95.32,101.71,95.32,101.71Z"/><path class="cls-4" d="M124.33,74.85s-3.26-14.67,12.44-11.14C136.77,63.7,124.24,63.31,124.33,74.85Z"/><path class="cls-2" d="M140.8,59.76s-2.21-10.25,7.73-7.63C148.53,52.13,140.62,51.72,140.8,59.76Z"/><path class="cls-2" d="M128.51,97.09c8.12,0,16.09-4.2,23.71-12.5a.49.49,0,1,0-.72-.66c-7.79,8.48-15.9,12.57-24.12,12.15-12.78-.64-21.53-12.13-21.62-12.25a.49.49,0,1,0-.79.59c.09.12,9.1,12,22.35,12.64Z"/><path class="cls-2" d="M101,86.39s-2.29-10.66,9.4-5.46C110.45,80.93,101.51,78.21,101,86.39Z"/><path class="cls-4" d="M172,113.7c-1.85-.12-8.09-4.76-5.33-6.15,2.16-1,4.93,3.58,5.85,5l.2-.13a15.3,15.3,0,0,1,2.7-1.93c1.53-.82,9.39-4,10.79-2.06,2,2.5-8.49,4.31-10.18,4.61,2.76-.41,7.77.88,8.74,3.81-2.11,2.41-7.81-2.29-9.59-3.72.88,1.1,4.09,4.76,1.19,4.87-1.51.06-2.69-1.88-3.36-3"/><polygon class="cls-3" points="137.76 131.44 138.91 217.6 135.51 217.6 134.52 133.7 137.76 131.44"/><polygon class="cls-3" points="126.37 131.44 127.53 217.6 124.08 217.6 123.06 133.7 126.37 131.44"/><rect class="cls-4" x="117.31" y="136.95" width="23.22" height="6.31" transform="translate(257.84 280.21) rotate(-180)"/><path class="cls-4" d="M121.33,140.11c-.45,1.24-4.88,62.24-4.88,62.24l-11.09-2.84Z"/><path class="cls-4" d="M120.88,141.52c-.37.5-10.32,27.54-10.32,27.54l-4.65-2.73Z"/><rect class="cls-3" x="84.06" y="39.28" width="35" height="3.26" transform="translate(207.08 11.7) rotate(142.59)"/><polygon class="cls-3" points="107.19 35.36 103.37 27.68 86.93 40.26 93.73 45.65 107.19 35.36"/><path class="cls-3" d="M139.16,217s3,4.48,10,4.27l.23,1.43s-8.92,1-11.75-3.21l.28,3.26-3-.23.75-5.94Z"/><path class="cls-3" d="M124,217s-3,4.48-10,4.27l-.23,1.43s8.92,1,11.75-3.21l-.28,3.26,3-.23-.75-5.94Z"/><polygon class="cls-5" points="175.73 101.96 167.97 146.74 165.87 146.12 174.16 100.84 175.73 101.96"/><path class="cls-6" d="M186.46,89.42,167.9,86.9s-8.24,16.17,3.11,17.88S186,106.38,186.46,89.42Z"/><path class="cls-5" d="M170.77,123.53s9.26-3.88,11,5.24C181.74,128.77,172.8,134.12,170.77,123.53Z"/><ellipse class="cls-7" cx="140.98" cy="221.68" rx="54.43" ry="4.67"/></g></g></svg>