<svg id="Layer_1" data-name="Layer 1" xmlns="http://www.w3.org/2000/svg" viewBox="0 0 1574.66 878.63"><defs><style>.cls-1{fill:#f7931e;stroke:#000;stroke-miterlimit:10;opacity:0.15;stroke-width:10px;}.cls-2{fill:#ed1c24;opacity:0.15;}</style></defs><title>sia-explode</title><circle class="cls-1" cx="740.46" cy="95.52" r="90.52"/><path class="cls-2" d="M221.55,853.19q-48.09-18.41-75.49-50.33t-27.42-82.24q0-52.11,27.42-91.68t77.29-61.11q49.89-21.57,115.5-21.57,62.89,0,115.49,26.51t83.14,74.15Q568,694.58,568,755.67H534.78q0-53-26.06-93.47t-71-62.47q-45-22-99.76-22-48.54,0-90.78,15.28t-68.76,46.74q-26.52,31.47-26.51,79.09,0,43.14,25.16,68.76t65.62,39.1q40.44,13.49,113.24,28.76,73.69,15.28,114.6,29.21a158.32,158.32,0,0,1,69.21,46.29Q568,963.3,568,1021.72t-31,98.41q-31,40-82.24,59.77t-111.45,19.78q-74.61,0-131.22-27.87t-86.74-78.64Q95.26,1042.4,95.27,976.78h33.26q0,57.53,25.61,100.66t74.16,67q48.52,23.82,115,23.82,82.68,0,137.07-39.55t54.37-107.85q0-46.73-23.37-71.91t-58.87-36.4Q417,901.29,346,886.9,269.63,871.63,221.55,853.19Z" transform="translate(-95.27 -321.05)"/><path class="cls-1" d="M633.64,718.82V560.64H1038.1V718.82h-186V1028h186v158.18H633.64V1028H819.69V718.82Z" transform="translate(-95.27 -321.05)"/><path class="cls-2" d="M1669.94,1186.19H1080.33l294.8-639Zm-537.48-33.25h485.35L1375.13,626.25Z" transform="translate(-95.27 -321.05)"/></svg>